<?xml version="1.0" encoding="utf-8"?>
<!-- Generator: Adobe Illustrator 22.1.0, SVG Export Plug-In . SVG Version: 6.00 Build 0)  -->
<svg version="1.1" id="レイヤー_1" xmlns="http://www.w3.org/2000/svg" xmlns:xlink="http://www.w3.org/1999/xlink" x="0px"
	 y="0px" viewBox="0 0 700 300" style="enable-background:new 0 0 700 300;" xml:space="preserve">
<style type="text/css">
	.st0{fill:#FFFFFF;stroke:#000000;stroke-miterlimit:10;}
	.st1{fill:none;}
</style>
<g>
	<g>
		<path class="st0" d="M101.1,83.8v67.8c0,29.8,16.8,37.4,32.6,37.4c18.7,0,32.6-7.8,32.6-37.4V83.8h8.8v67.4
			c0,35-18.6,45.9-41.8,45.9c-22.1,0-41.3-12-41.3-44.5V83.8H101.1z"/>
		<path class="st0" d="M211.4,184v43.8h-8v-92.3c0-6.6,0-13.6-0.2-19.7h7.8c0.3,3,0.3,7.8,0.3,14.4c5-9.6,13.8-16.3,28.2-16.3
			c18.9,0,32,15.8,32,39.8c0,28.8-15.4,44-34.7,44C222.7,197.8,215.4,191.5,211.4,184z M263,154.1c0-18.6-9-32.5-24.8-32.5
			c-19.4,0-27.4,12.2-27.4,33.9c0,21.4,6.2,34.7,26.2,34.7C253.8,190.2,263,176.2,263,154.1z"/>
		<path class="st0" d="M378.6,165.9c-5.3,17.8-18.4,31.2-42.1,31.2c-32.2,0-49.1-25.6-49.1-57.1c0-30.2,16.6-57.8,49.3-57.8
			c24.2,0,38.4,13.4,42.1,32.2h-8.6c-5.1-14.6-14.6-24.2-33.9-24.2c-27.8,0-39.5,25.4-39.5,49.6c0,24,11.5,49.3,40.2,49.3
			c18.2,0,27.5-9.4,33.1-23.2H378.6z"/>
		<path class="st0" d="M463.4,155.7c0,22.2-12.3,42.1-36.2,42.1c-21.6,0-35-17.8-35-41.9c0-22.9,12.6-41.9,35.8-41.9
			C449.3,113.9,463.4,130.6,463.4,155.7z M400.6,155.8c0,19,10.2,34.4,27.2,34.4c17.3,0,27-14.2,27-34.4c0-18.9-9.6-34.4-27.4-34.4
			C409.3,121.4,400.6,136.6,400.6,155.8z"/>
		<path class="st0" d="M483.2,195.8V77.9h8v117.9H483.2z"/>
		<path class="st0" d="M582.2,155.7c0,22.2-12.3,42.1-36.2,42.1c-21.6,0-35-17.8-35-41.9c0-22.9,12.6-41.9,35.8-41.9
			C568.2,113.9,582.2,130.6,582.2,155.7z M519.5,155.8c0,19,10.2,34.4,27.2,34.4c17.3,0,27-14.2,27-34.4c0-18.9-9.6-34.4-27.4-34.4
			C528.2,121.4,519.5,136.6,519.5,155.8z"/>
		<path class="st0" d="M602.1,137.6c0-13.4-0.2-19.2-0.2-21.8h7.8c0.2,2.6,0.3,7.7,0.3,17.9c4.6-12,14.9-19.2,27.8-19.8v8.6
			c-16.6,1.1-27.8,12.6-27.8,31.7v41.6h-8V137.6z"/>
	</g>
</g>
<rect x="427" y="281.7" class="st1" width="59.3" height="2.7"/>
<rect x="124" y="50.3" class="st1" width="184" height="140.7"/>
</svg>
